<svg xmlns="http://www.w3.org/2000/svg" width="1020" height="520" viewBox="0 0 1020 520">
<rect width="100%" height="100%" fill="white"/>
<text x="510.0" y="30" text-anchor="middle" font-family="Arial, Microsoft YaHei" font-size="20">SiC 双角度红外反射谱</text>
<line x1="78" y1="448" x2="986" y2="448" stroke="#333"/>
<line x1="78" y1="58" x2="78" y2="448" stroke="#333"/>
<text x="510.0" y="496" text-anchor="middle" font-family="Arial, Microsoft YaHei" font-size="13">波数 (cm^-1)</text>
<text x="20" y="260.0" transform="rotate(-90 20,260.0)" text-anchor="middle" font-family="Arial, Microsoft YaHei" font-size="13">反射率 (%)</text>
<polyline fill="none" stroke="#4c78a8" stroke-width="1.6" opacity="0.92" points="78.00,427.17 78.61,329.38 79.22,333.17 79.82,334.02 80.43,336.78 81.04,339.76 81.65,341.22 82.26,342.61 82.86,344.80 83.47,347.80 84.08,349.66 84.69,351.41 85.30,354.17 85.90,355.06 86.51,354.43 87.12,354.30 87.73,353.42 88.33,352.75 88.94,352.65 89.55,353.03 90.16,352.91 90.77,351.77 91.37,351.07 91.98,349.87 92.59,347.98 93.20,346.36 93.81,344.92 94.41,342.95 95.02,340.87 95.63,338.87 96.24,336.26 96.85,334.21 97.45,332.90 98.06,330.94 98.67,329.07 99.28,327.11 99.89,325.38 100.49,323.71 101.10,321.98 101.71,320.57 102.32,319.18 102.93,317.76 103.53,316.60 104.14,315.72 104.75,315.11 105.36,314.68 105.96,314.49 106.57,313.88 107.18,313.18 107.79,312.68 108.40,312.86 109.00,312.96 109.61,313.16 110.22,313.46 110.83,314.01 111.44,315.08 112.04,316.07 112.65,316.89 113.26,318.16 113.87,319.19 114.48,320.00 115.08,321.09 115.69,322.46 116.30,323.70 116.91,324.80 117.52,325.91 118.12,327.09 118.73,328.51 119.34,329.65 119.95,330.32 120.55,331.10 121.16,331.85 121.77,332.38 122.38,332.41 122.99,331.91 123.59,331.82 124.20,331.80 124.81,331.27 125.42,330.41 126.03,329.60 126.63,328.46 127.24,326.98 127.85,325.50 128.46,323.82 129.07,322.09 129.67,320.58 130.28,318.71 130.89,316.67 131.50,315.25 132.11,314.05 132.71,312.72 133.32,310.98 133.93,309.49 134.54,308.55 135.15,307.90 135.75,307.19 136.36,306.76 136.97,306.29 137.58,305.99 138.18,306.18 138.79,306.73 139.40,307.10 140.01,307.47 140.62,308.19 141.22,308.94 141.83,309.89 142.44,310.73 143.05,311.51 143.66,311.96 144.26,312.03 144.87,311.90 145.48,311.13 146.09,309.98 146.70,309.35 147.30,308.04 147.91,306.27 148.52,304.40 149.13,302.29 149.74,300.11 150.34,298.39 150.95,296.83 151.56,295.13 152.17,293.44 152.78,292.55 153.38,291.95 153.99,291.59 154.60,291.54 155.21,291.66 155.81,291.83 156.42,291.75 157.03,291.56 157.64,290.81 158.25,289.36 158.85,287.28 159.46,284.56 160.07,281.83 160.68,279.38 161.29,277.33 161.89,275.91 162.50,275.12 163.11,274.44 163.72,273.81 164.33,272.49 164.93,270.14 165.54,267.17 166.15,264.27 166.76,261.72 167.37,259.76 167.97,257.88 168.58,255.25 169.19,251.75 169.80,248.18 170.40,245.28 171.01,242.29 171.62,238.35 172.23,233.78 172.84,229.03 173.44,223.83 174.05,218.11 174.66,211.71 175.27,204.39 175.88,195.86 176.48,185.32 177.09,171.80 177.70,153.42 178.31,132.24 178.92,116.62 179.52,109.93 180.13,107.85 180.74,106.92 181.35,106.41 181.96,105.98 182.56,105.65 183.17,105.46 183.78,105.12 184.39,104.98 185.00,105.02 185.60,105.11 186.21,105.05 186.82,104.98 187.43,105.03 188.03,105.19 188.64,105.22 189.25,105.45 189.86,105.53 190.47,105.52 191.07,105.41 191.68,105.54 192.29,105.48 192.90,105.53 193.51,105.55 194.11,105.57 194.72,105.57 195.33,105.60 195.94,105.70 196.55,105.87 197.15,106.09 197.76,106.26 198.37,106.44 198.98,106.54 199.59,106.62 200.19,106.88 200.80,107.25 201.41,107.52 202.02,107.68 202.63,107.88 203.23,107.99 203.84,108.11 204.45,108.28 205.06,108.61 205.66,108.87 206.27,109.19 206.88,109.30 207.49,109.41 208.10,109.74 208.70,110.10 209.31,110.69 209.92,111.29 210.53,112.06 211.14,113.04 211.74,114.34 212.35,115.59 212.96,116.96 213.57,119.10 214.18,121.00 214.78,121.72 215.39,121.78 216.00,122.63 216.61,124.37 217.22,127.08 217.82,130.63 218.43,136.00 219.04,145.19 219.65,160.23 220.25,175.63 220.86,186.20 221.47,204.34 222.08,244.50 222.69,307.08 223.29,371.85 223.90,406.82 224.51,405.40 225.12,392.91 225.73,388.16 226.33,392.36 226.94,400.28 227.55,408.13 228.16,413.76 228.77,416.82 229.37,417.58 229.98,416.75 230.59,415.10 231.20,413.43 231.81,412.13 232.41,411.41 233.02,411.52 233.63,412.44 234.24,414.07 234.85,416.17 235.45,418.39 236.06,420.52 236.67,422.45 237.28,423.93 237.88,424.83 238.49,425.00 239.10,424.71 239.71,423.83 240.32,422.41 240.92,420.45 241.53,418.31 242.14,416.00 242.75,413.58 243.36,411.09 243.96,408.68 244.57,406.26 245.18,403.98 245.79,402.08 246.40,400.33 247.00,398.94 247.61,397.74 248.22,396.67 248.83,396.03 249.44,395.64 250.04,395.40 250.65,395.38 251.26,395.32 251.87,395.68 252.48,396.20 253.08,396.69 253.69,397.29 254.30,398.13 254.91,398.95 255.51,399.88 256.12,400.61 256.73,401.40 257.34,402.18 257.95,402.90 258.55,403.51 259.16,404.07 259.77,404.52 260.38,404.84 260.99,404.88 261.59,404.99 262.20,405.01 262.81,405.00 263.42,404.76 264.03,404.29 264.63,403.83 265.24,403.24 265.85,402.52 266.46,401.71 267.07,400.92 267.67,400.05 268.28,399.14 268.89,398.14 269.50,397.02 270.10,395.98 270.71,394.93 271.32,393.82 271.93,392.75 272.54,391.76 273.14,390.76 273.75,389.79 274.36,388.84 274.97,387.90 275.58,387.09 276.18,386.31 276.79,385.61 277.40,384.90 278.01,384.23 278.62,383.78 279.22,383.38 279.83,382.95 280.44,382.66 281.05,382.36 281.66,382.26 282.26,382.14 282.87,382.03 283.48,382.04 284.09,382.06 284.70,382.20 285.30,382.29 285.91,382.55 286.52,382.80 287.13,383.09 287.73,383.38 288.34,383.88 288.95,384.10 289.56,384.43 290.17,384.80 290.77,385.31 291.38,385.77 291.99,386.15 292.60,386.51 293.21,386.83 293.81,387.10 294.42,387.41 295.03,387.76 295.64,387.99 296.25,388.24 296.85,388.35 297.46,388.43 298.07,388.48 298.68,388.57 299.29,388.53 299.89,388.43 300.50,388.39 301.11,388.39 301.72,388.28 302.33,388.16 302.93,388.06 303.54,387.92 304.15,387.65 304.76,387.44 305.36,387.14 305.97,386.98 306.58,386.70 307.19,386.45 307.80,386.16 308.40,385.84 309.01,385.49 309.62,385.12 310.23,384.71 310.84,384.33 311.44,383.92 312.05,383.43 312.66,382.98 313.27,382.54 313.88,382.11 314.48,381.64 315.09,381.21 315.70,380.78 316.31,380.35 316.92,379.83 317.52,379.33 318.13,378.95 318.74,378.43 319.35,378.08 319.96,377.64 320.56,377.30 321.17,376.82 321.78,376.53 322.39,376.24 322.99,375.92 323.60,375.76 324.21,375.48 324.82,375.24 325.43,375.18 326.03,375.06 326.64,375.01 327.25,374.97 327.86,374.93 328.47,374.88 329.07,374.88 329.68,374.86 330.29,374.90 330.90,374.93 331.51,374.94 332.11,375.22 332.72,375.25 333.33,375.41 333.94,375.57 334.55,375.80 335.15,376.13 335.76,376.26 336.37,376.40 336.98,376.53 337.58,376.86 338.19,377.06 338.80,377.26 339.41,377.51 340.02,377.78 340.62,378.07 341.23,378.25 341.84,378.60 342.45,378.82 343.06,379.06 343.66,379.18 344.27,379.51 344.88,379.72 345.49,379.74 346.10,379.82 346.70,380.00 347.31,380.13 347.92,380.21 348.53,380.38 349.14,380.26 349.74,380.28 350.35,380.27 350.96,380.19 351.57,380.10 352.18,379.91 352.78,379.67 353.39,379.51 354.00,379.32 354.61,378.97 355.21,378.67 355.82,378.38 356.43,378.15 357.04,377.76 357.65,377.28 358.25,376.96 358.86,376.79 359.47,376.47 360.08,376.21 360.69,375.96 361.29,375.73 361.90,375.68 362.51,375.65 363.12,375.52 363.73,375.27 364.33,374.92 364.94,374.73 365.55,374.40 366.16,374.20 366.77,374.41 367.37,374.62 367.98,374.70 368.59,374.74 369.20,374.72 369.81,374.60 370.41,374.21 371.02,374.08 371.63,373.99 372.24,373.77 372.84,373.43 373.45,373.02 374.06,372.76 374.67,372.35 375.28,371.98 375.88,371.69 376.49,371.45 377.10,371.22 377.71,371.10 378.32,370.95 378.92,370.95 379.53,370.84 380.14,370.90 380.75,370.97 381.36,370.87 381.96,370.96 382.57,371.00 383.18,371.09 383.79,371.24 384.40,371.32 385.00,371.48 385.61,371.56 386.22,371.63 386.83,371.65 387.44,371.74 388.04,371.83 388.65,371.89 389.26,371.85 389.87,372.05 390.47,372.20 391.08,372.30 391.69,372.41 392.30,372.58 392.91,372.71 393.51,372.86 394.12,373.00 394.73,373.13 395.34,373.24 395.95,373.36 396.55,373.57 397.16,373.76 397.77,373.95 398.38,374.06 398.99,374.22 399.59,374.47 400.20,374.55 400.81,374.64 401.42,374.82 402.03,374.92 402.63,375.05 403.24,375.20 403.85,375.35 404.46,375.37 405.06,375.53 405.67,375.51 406.28,375.71 406.89,375.85 407.50,375.77 408.10,375.83 408.71,375.85 409.32,375.93 409.93,375.89 410.54,375.74 411.14,375.79 411.75,375.75 412.36,375.68 412.97,375.59 413.58,375.57 414.18,375.44 414.79,375.24 415.40,375.15 416.01,375.00 416.62,374.86 417.22,374.72 417.83,374.65 418.44,374.29 419.05,374.05 419.66,373.91 420.26,373.66 420.87,373.45 421.48,373.11 422.09,372.93 422.69,372.69 423.30,372.50 423.91,372.18 424.52,371.83 425.13,371.69 425.73,371.54 426.34,371.27 426.95,371.04 427.56,370.85 428.17,370.66 428.77,370.39 429.38,370.08 429.99,369.83 430.60,369.79 431.21,369.62 431.81,369.39 432.42,369.18 433.03,369.06 433.64,368.86 434.25,368.66 434.85,368.63 435.46,368.49 436.07,368.36 436.68,368.27 437.29,368.16 437.89,368.12 438.50,368.05 439.11,367.98 439.72,367.95 440.32,367.95 440.93,368.04 441.54,368.05 442.15,368.02 442.76,367.99 443.36,368.07 443.97,368.16 444.58,368.19 445.19,368.24 445.80,368.42 446.40,368.49 447.01,368.62 447.62,368.71 448.23,368.81 448.84,368.89 449.44,369.11 450.05,369.22 450.66,369.34 451.27,369.53 451.88,369.72 452.48,369.80 453.09,369.97 453.70,370.12 454.31,370.30 454.91,370.55 455.52,370.67 456.13,370.82 456.74,370.99 457.35,371.11 457.95,371.30 458.56,371.47 459.17,371.49 459.78,371.68 460.39,371.77 460.99,371.97 461.60,372.10 462.21,372.22 462.82,372.36 463.43,372.46 464.03,372.54 464.64,372.64 465.25,372.65 465.86,372.77 466.47,372.87 467.07,372.88 467.68,372.88 468.29,372.92 468.90,372.95 469.50,372.95 470.11,372.88 470.72,372.84 471.33,372.80 471.94,372.73 472.54,372.69 473.15,372.61 473.76,372.60 474.37,372.42 474.98,372.33 475.58,372.18 476.19,372.14 476.80,372.07 477.41,371.95 478.02,371.73 478.62,371.55 479.23,371.28 479.84,371.11 480.45,371.07 481.06,370.83 481.66,370.76 482.27,370.44 482.88,370.26 483.49,370.14 484.10,369.96 484.70,369.74 485.31,369.55 485.92,369.34 486.53,369.18 487.13,368.92 487.74,368.74 488.35,368.62 488.96,368.51 489.57,368.33 490.17,368.16 490.78,367.90 491.39,367.78 492.00,367.65 492.61,367.56 493.21,367.39 493.82,367.25 494.43,367.17 495.04,367.03 495.65,366.94 496.25,366.79 496.86,366.81 497.47,366.74 498.08,366.60 498.69,366.58 499.29,366.48 499.90,366.50 500.51,366.44 501.12,366.40 501.73,366.39 502.33,366.47 502.94,366.51 503.55,366.51 504.16,366.55 504.76,366.61 505.37,366.71 505.98,366.70 506.59,366.72 507.20,366.89 507.80,366.94 508.41,367.04 509.02,367.08 509.63,367.20 510.24,367.31 510.84,367.51 511.45,367.62 512.06,367.70 512.67,367.83 513.28,367.93 513.88,368.05 514.49,368.23 515.10,368.41 515.71,368.52 516.32,368.71 516.92,368.82 517.53,368.95 518.14,369.11 518.75,369.19 519.36,369.32 519.96,369.46 520.57,369.49 521.18,369.72 521.79,369.90 522.39,369.95 523.00,370.06 523.61,370.19 524.22,370.30 524.83,370.38 525.43,370.45 526.04,370.49 526.65,370.61 527.26,370.72 527.87,370.71 528.47,370.77 529.08,370.82 529.69,370.88 530.30,370.83 530.91,370.90 531.51,370.86 532.12,370.85 532.73,370.90 533.34,370.86 533.95,370.82 534.55,370.78 535.16,370.69 535.77,370.70 536.38,370.63 536.98,370.53 537.59,370.39 538.20,370.36 538.81,370.32 539.42,370.16 540.02,370.08 540.63,369.92 541.24,369.81 541.85,369.64 542.46,369.60 543.06,369.41 543.67,369.27 544.28,369.06 544.89,368.95 545.50,368.85 546.10,368.65 546.71,368.50 547.32,368.32 547.93,368.17 548.54,368.01 549.14,367.87 549.75,367.78 550.36,367.61 550.97,367.38 551.58,367.30 552.18,367.13 552.79,366.96 553.40,366.87 554.01,366.80 554.61,366.73 555.22,366.62 555.83,366.52 556.44,366.38 557.05,366.28 557.65,366.22 558.26,366.16 558.87,366.11 559.48,366.06 560.09,366.08 560.69,365.95 561.30,365.91 561.91,365.93 562.52,365.85 563.13,365.84 563.73,365.84 564.34,365.96 564.95,365.95 565.56,365.90 566.17,365.84 566.77,365.88 567.38,366.02 567.99,366.27 568.60,366.25 569.21,366.20 569.81,366.22 570.42,366.31 571.03,366.41 571.64,366.65 572.24,366.77 572.85,366.80 573.46,366.78 574.07,366.82 574.68,366.97 575.28,367.06 575.89,366.97 576.50,366.99 577.11,367.03 577.72,367.13 578.32,367.25 578.93,367.39 579.54,367.38 580.15,367.48 580.76,367.68 581.36,367.71 581.97,367.90 582.58,368.00 583.19,368.11 583.80,368.22 584.40,368.34 585.01,368.49 585.62,368.62 586.23,368.65 586.84,368.76 587.44,368.84 588.05,368.89 588.66,369.01 589.27,369.09 589.87,369.11 590.48,369.16 591.09,369.22 591.70,369.19 592.31,369.28 592.91,369.30 593.52,369.31 594.13,369.32 594.74,369.43 595.35,369.47 595.95,369.41 596.56,369.39 597.17,369.36 597.78,369.33 598.39,369.27 598.99,369.29 599.60,369.22 600.21,369.16 600.82,369.15 601.43,369.02 602.03,368.86 602.64,368.80 603.25,368.79 603.86,368.76 604.46,368.51 605.07,368.43 605.68,368.37 606.29,368.27 606.90,368.18 607.50,368.06 608.11,367.93 608.72,367.79 609.33,367.78 609.94,367.60 610.54,367.46 611.15,367.32 611.76,367.22 612.37,367.06 612.98,366.97 613.58,366.87 614.19,366.75 614.80,366.70 615.41,366.46 616.02,366.40 616.62,366.27 617.23,366.31 617.84,366.09 618.45,366.02 619.06,365.83 619.66,365.78 620.27,365.77 620.88,365.69 621.49,365.63 622.09,365.57 622.70,365.46 623.31,365.34 623.92,365.30 624.53,365.30 625.13,365.20 625.74,365.18 626.35,365.18 626.96,365.17 627.57,365.13 628.17,365.14 628.78,365.10 629.39,365.07 630.00,365.10 630.61,365.18 631.21,365.21 631.82,365.16 632.43,365.32 633.04,365.30 633.65,365.38 634.25,365.37 634.86,365.39 635.47,365.46 636.08,365.59 636.69,365.62 637.29,365.72 637.90,365.80 638.51,365.81 639.12,365.90 639.72,366.08 640.33,366.14 640.94,366.20 641.55,366.31 642.16,366.40 642.76,366.42 643.37,366.58 643.98,366.70 644.59,366.74 645.20,366.88 645.80,366.97 646.41,367.05 647.02,367.14 647.63,367.24 648.24,367.33 648.84,367.39 649.45,367.49 650.06,367.57 650.67,367.68 651.28,367.68 651.88,367.77 652.49,367.77 653.10,367.94 653.71,367.98 654.32,368.03 654.92,368.09 655.53,368.03 656.14,368.15 656.75,368.19 657.35,368.21 657.96,368.24 658.57,368.16 659.18,368.20 659.79,368.22 660.39,368.19 661.00,368.22 661.61,368.17 662.22,368.15 662.83,368.14 663.43,368.13 664.04,368.05 664.65,367.96 665.26,367.92 665.87,367.92 666.47,367.89 667.08,367.80 667.69,367.73 668.30,367.64 668.91,367.62 669.51,367.56 670.12,367.49 670.73,367.42 671.34,367.29 671.94,367.22 672.55,367.16 673.16,367.11 673.77,366.97 674.38,366.93 674.98,366.71 675.59,366.55 676.20,366.49 676.81,366.41 677.42,366.37 678.02,366.23 678.63,366.20 679.24,366.12 679.85,366.03 680.46,365.98 681.06,365.85 681.67,365.79 682.28,365.61 682.89,365.62 683.50,365.58 684.10,365.43 684.71,365.50 685.32,365.47 685.93,365.30 686.54,365.25 687.14,365.14 687.75,365.16 688.36,365.09 688.97,365.08 689.57,365.06 690.18,364.95 690.79,364.96 691.40,364.91 692.01,364.96 692.61,365.04 693.22,364.89 693.83,364.91 694.44,365.01 695.05,364.92 695.65,364.92 696.26,364.97 696.87,365.02 697.48,365.03 698.09,365.16 698.69,365.13 699.30,365.13 699.91,365.12 700.52,365.22 701.13,365.27 701.73,365.29 702.34,365.48 702.95,365.56 703.56,365.50 704.17,365.64 704.77,365.72 705.38,365.81 705.99,365.85 706.60,365.96 707.20,365.97 707.81,366.07 708.42,366.17 709.03,366.19 709.64,366.21 710.24,366.27 710.85,366.42 711.46,366.57 712.07,366.58 712.68,366.60 713.28,366.71 713.89,366.79 714.50,366.77 715.11,366.89 715.72,366.89 716.32,366.95 716.93,367.07 717.54,367.08 718.15,367.08 718.76,367.03 719.36,367.13 719.97,367.12 720.58,367.29 721.19,367.25 721.79,367.27 722.40,367.29 723.01,367.27 723.62,367.36 724.23,367.38 724.83,367.40 725.44,367.38 726.05,367.34 726.66,367.33 727.27,367.28 727.87,367.29 728.48,367.21 729.09,367.14 729.70,367.13 730.31,367.05 730.91,366.98 731.52,367.11 732.13,367.11 732.74,367.00 733.35,366.86 733.95,366.83 734.56,366.73 735.17,366.64 735.78,366.66 736.39,366.59 736.99,366.45 737.60,366.43 738.21,366.40 738.82,366.34 739.42,366.17 740.03,366.15 740.64,366.08 741.25,365.96 741.86,365.85 742.46,365.87 743.07,365.80 743.68,365.73 744.29,365.63 744.90,365.49 745.50,365.39 746.11,365.43 746.72,365.47 747.33,365.35 747.94,365.27 748.54,365.19 749.15,365.18 749.76,365.08 750.37,365.04 750.98,365.02 751.58,364.99 752.19,364.95 752.80,364.90 753.41,364.87 754.01,364.82 754.62,364.86 755.23,364.79 755.84,364.84 756.45,364.81 757.05,364.87 757.66,364.77 758.27,364.78 758.88,364.81 759.49,364.85 760.09,364.87 760.70,364.86 761.31,364.85 761.92,364.83 762.53,364.92 763.13,365.01 763.74,365.01 764.35,365.09 764.96,365.09 765.57,365.17 766.17,365.23 766.78,365.21 767.39,365.34 768.00,365.25 768.61,365.39 769.21,365.47 769.82,365.53 770.43,365.55 771.04,365.60 771.64,365.66 772.25,365.71 772.86,365.77 773.47,365.82 774.08,365.90 774.68,365.99 775.29,365.94 775.90,366.09 776.51,366.05 777.12,366.25 777.72,366.23 778.33,366.27 778.94,366.34 779.55,366.28 780.16,366.40 780.76,366.40 781.37,366.46 781.98,366.47 782.59,366.44 783.20,366.46 783.80,366.58 784.41,366.52 785.02,366.55 785.63,366.64 786.24,366.63 786.84,366.62 787.45,366.64 788.06,366.59 788.67,366.70 789.27,366.58 789.88,366.60 790.49,366.57 791.10,366.61 791.71,366.54 792.31,366.63 792.92,366.53 793.53,366.53 794.14,366.44 794.75,366.53 795.35,366.44 795.96,366.34 796.57,366.40 797.18,366.37 797.79,366.24 798.39,366.13 799.00,366.22 799.61,366.07 800.22,366.04 800.83,365.92 801.43,365.99 802.04,365.86 802.65,365.84 803.26,365.86 803.86,365.74 804.47,365.68 805.08,365.60 805.69,365.49 806.30,365.37 806.90,365.33 807.51,365.28 808.12,365.29 808.73,365.27 809.34,365.28 809.94,365.14 810.55,365.06 811.16,365.12 811.77,365.13 812.38,365.04 812.98,364.90 813.59,364.85 814.20,364.85 814.81,364.88 815.42,364.80 816.02,364.87 816.63,364.83 817.24,364.68 817.85,364.72 818.46,364.72 819.06,364.62 819.67,364.67 820.28,364.70 820.89,364.74 821.49,364.71 822.10,364.71 822.71,364.74 823.32,364.74 823.93,364.67 824.53,364.60 825.14,364.71 825.75,364.63 826.36,364.76 826.97,364.78 827.57,364.75 828.18,364.81 828.79,364.85 829.40,364.90 830.01,364.93 830.61,364.91 831.22,364.99 831.83,365.09 832.44,365.09 833.05,365.18 833.65,365.15 834.26,365.23 834.87,365.24 835.48,365.38 836.09,365.56 836.69,365.51 837.30,365.51 837.91,365.60 838.52,365.68 839.12,365.62 839.73,365.78 840.34,365.79 840.95,365.76 841.56,365.79 842.16,365.83 842.77,365.90 843.38,365.99 843.99,365.92 844.60,365.99 845.20,366.05 845.81,366.11 846.42,366.05 847.03,366.03 847.64,366.11 848.24,366.11 848.85,366.20 849.46,366.12 850.07,366.17 850.68,366.25 851.28,366.17 851.89,366.24 852.50,366.20 853.11,366.21 853.72,366.21 854.32,366.17 854.93,366.06 855.54,366.15 856.15,366.13 856.75,366.14 857.36,366.08 857.97,366.06 858.58,366.06 859.19,366.02 859.79,366.03 860.40,365.96 861.01,365.89 861.62,365.84 862.23,365.78 862.83,365.78 863.44,365.78 864.05,365.65 864.66,365.68 865.27,365.66 865.87,365.65 866.48,365.47 867.09,365.41 867.70,365.34 868.31,365.29 868.91,365.31 869.52,365.26 870.13,365.20 870.74,365.23 871.34,365.11 871.95,365.16 872.56,365.17 873.17,365.07 873.78,364.97 874.38,364.93 874.99,364.85 875.60,364.81 876.21,364.79 876.82,364.64 877.42,364.66 878.03,364.74 878.64,364.72 879.25,364.74 879.86,364.64 880.46,364.62 881.07,364.67 881.68,364.61 882.29,364.47 882.90,364.49 883.50,364.59 884.11,364.57 884.72,364.59 885.33,364.49 885.94,364.54 886.54,364.51 887.15,364.42 887.76,364.46 888.37,364.43 888.97,364.52 889.58,364.60 890.19,364.63 890.80,364.75 891.41,364.67 892.01,364.54 892.62,364.49 893.23,364.62 893.84,364.72 894.45,364.83 895.05,364.89 895.66,364.97 896.27,364.99 896.88,365.08 897.49,365.07 898.09,365.07 898.70,365.21 899.31,365.23 899.92,365.12 900.53,365.22 901.13,365.28 901.74,365.36 902.35,365.44 902.96,365.40 903.57,365.47 904.17,365.47 904.78,365.54 905.39,365.46 906.00,365.56 906.60,365.64 907.21,365.73 907.82,365.73 908.43,365.81 909.04,365.89 909.64,365.87 910.25,365.87 910.86,365.75 911.47,365.74 912.08,365.97 912.68,366.05 913.29,365.94 913.90,365.85 914.51,365.85 915.12,365.89 915.72,365.91 916.33,365.82 916.94,365.84 917.55,365.90 918.16,365.97 918.76,365.90 919.37,365.79 919.98,365.77 920.59,365.94 921.20,365.96 921.80,365.84 922.41,365.78 923.02,365.76 923.63,365.76 924.23,365.85 924.84,365.75 925.45,365.55 926.06,365.47 926.67,365.42 927.27,365.43 927.88,365.32 928.49,365.29 929.10,365.32 929.71,365.27 930.31,365.30 930.92,365.28 931.53,365.22 932.14,364.99 932.75,364.98 933.35,364.99 933.96,365.07 934.57,364.94 935.18,364.88 935.79,364.79 936.39,364.83 937.00,364.78 937.61,364.66 938.22,364.54 938.82,364.55 939.43,364.43 940.04,364.41 940.65,364.29 941.26,364.27 941.86,364.39 942.47,364.41 943.08,364.43 943.69,364.35 944.30,364.30 944.90,364.30 945.51,364.31 946.12,364.30 946.73,364.24 947.34,364.23 947.94,364.35 948.55,364.41 949.16,364.16 949.77,364.10 950.38,364.25 950.98,364.34 951.59,364.33 952.20,364.35 952.81,364.43 953.42,364.41 954.02,364.32 954.63,364.37 955.24,364.34 955.85,364.46 956.45,364.46 957.06,364.48 957.67,364.46 958.28,364.57 958.89,364.47 959.49,364.56 960.10,364.66 960.71,364.73 961.32,364.61 961.93,364.63 962.53,364.72 963.14,364.86 963.75,364.88 964.36,364.91 964.97,365.02 965.57,365.00 966.18,365.04 966.79,364.96 967.40,365.05 968.01,365.13 968.61,365.16 969.22,365.17 969.83,365.14 970.44,365.22 971.05,365.34 971.65,365.38 972.26,365.50 972.87,365.50 973.48,365.48 974.08,365.38 974.69,365.45 975.30,365.49 975.91,365.50 976.52,365.55 977.12,365.66 977.73,365.57 978.34,365.61 978.95,365.68 979.56,365.58 980.16,365.59 980.77,365.70 981.38,365.81 981.99,365.69 982.60,365.67 983.20,365.59 983.81,365.63 984.42,365.54 985.03,365.46 985.64,365.44"><title>SiC 10度</title></polyline>
<polyline fill="none" stroke="#f58518" stroke-width="1.6" opacity="0.92" points="78.00,427.17 78.61,311.75 79.22,319.19 79.82,322.71 80.43,323.13 81.04,325.11 81.65,329.99 82.26,334.71 82.86,337.18 83.47,337.92 84.08,339.26 84.69,341.23 85.30,342.85 85.90,343.92 86.51,346.05 87.12,348.09 87.73,347.84 88.33,346.97 88.94,345.87 89.55,344.65 90.16,344.02 90.77,343.61 91.37,342.92 91.98,341.68 92.59,340.29 93.20,338.56 93.81,336.73 94.41,335.58 95.02,334.86 95.63,334.09 96.24,331.42 96.85,326.91 97.45,324.47 98.06,323.13 98.67,321.17 99.28,319.18 99.89,317.34 100.49,315.24 101.10,312.99 101.71,311.54 102.32,310.08 102.93,308.17 103.53,306.81 104.14,305.95 104.75,305.37 105.36,304.28 105.96,303.39 106.57,303.15 107.18,303.09 107.79,302.64 108.40,302.59 109.00,302.72 109.61,302.58 110.22,302.99 110.83,303.62 111.44,304.49 112.04,305.40 112.65,306.18 113.26,306.98 113.87,308.29 114.48,309.96 115.08,311.24 115.69,311.98 116.30,313.28 116.91,314.89 117.52,316.49 118.12,317.80 118.73,318.68 119.34,319.53 119.95,320.46 120.55,321.22 121.16,321.92 121.77,322.35 122.38,322.79 122.99,323.19 123.59,323.23 124.20,323.06 124.81,322.56 125.42,321.72 126.03,320.81 126.63,319.79 127.24,318.48 127.85,317.04 128.46,315.64 129.07,313.72 129.67,311.66 130.28,309.89 130.89,308.28 131.50,306.63 132.11,304.87 132.71,302.83 133.32,301.46 133.93,300.25 134.54,299.23 135.15,298.10 135.75,297.06 136.36,296.23 136.97,295.72 137.58,295.55 138.18,295.33 138.79,295.19 139.40,295.33 140.01,295.74 140.62,296.28 141.22,296.70 141.83,297.37 142.44,298.36 143.05,299.09 143.66,299.71 144.26,300.24 144.87,300.34 145.48,299.29 146.09,297.88 146.70,297.57 147.30,296.75 147.91,295.29 148.52,293.52 149.13,291.27 149.74,288.91 150.34,286.80 150.95,284.78 151.56,283.27 152.17,282.13 152.78,281.20 153.38,280.63 153.99,280.52 154.60,280.60 155.21,280.80 155.81,281.01 156.42,281.06 157.03,280.70 157.64,279.99 158.25,278.53 158.85,276.29 159.46,273.84 160.07,271.14 160.68,268.44 161.29,266.08 161.89,264.35 162.50,263.29 163.11,262.73 163.72,262.10 164.33,260.84 164.93,258.33 165.54,255.13 166.15,252.09 166.76,249.43 167.37,247.35 167.97,245.59 168.58,242.96 169.19,239.28 169.80,235.42 170.40,232.34 171.01,229.29 171.62,225.06 172.23,220.26 172.84,215.17 173.44,209.77 174.05,203.63 174.66,196.69 175.27,188.77 175.88,179.44 176.48,168.05 177.09,153.66 177.70,134.04 178.31,111.04 178.92,93.90 179.52,86.59 180.13,84.16 180.74,83.13 181.35,82.29 181.96,81.69 182.56,81.35 183.17,81.13 183.78,80.94 184.39,80.82 185.00,80.51 185.60,80.30 186.21,80.17 186.82,80.16 187.43,80.23 188.03,80.53 188.64,80.76 189.25,80.83 189.86,80.66 190.47,80.54 191.07,80.63 191.68,80.65 192.29,80.60 192.90,80.69 193.51,80.71 194.11,80.63 194.72,80.51 195.33,80.53 195.94,80.63 196.55,80.81 197.15,80.85 197.76,80.95 198.37,80.90 198.98,80.95 199.59,81.00 200.19,81.39 200.80,81.67 201.41,81.91 202.02,82.19 202.63,82.56 203.23,82.86 203.84,83.29 204.45,83.69 205.06,83.91 205.66,84.11 206.27,84.47 206.88,84.77 207.49,85.09 208.10,85.41 208.70,86.11 209.31,86.63 209.92,87.37 210.53,88.24 211.14,89.39 211.74,90.52 212.35,91.93 212.96,93.82 213.57,95.94 214.18,97.98 214.78,98.78 215.39,99.11 216.00,100.34 216.61,102.68 217.22,106.07 217.82,110.76 218.43,118.40 219.04,132.05 219.65,157.59 220.25,194.75 220.86,223.54 221.47,230.12 222.08,236.53 222.69,266.39 223.29,317.37 223.90,369.58 224.51,401.69 225.12,408.39 225.73,402.36 226.33,397.62 226.94,398.84 227.55,403.89 228.16,409.69 228.77,414.29 229.37,417.01 229.98,417.79 230.59,416.70 231.20,414.74 231.81,412.65 232.41,410.65 233.02,409.14 233.63,408.68 234.24,409.32 234.85,410.71 235.45,412.46 236.06,414.58 236.67,417.06 237.28,419.32 237.88,421.41 238.49,422.88 239.10,423.66 239.71,423.87 240.32,423.43 240.92,422.44 241.53,421.02 242.14,419.25 242.75,417.08 243.36,414.75 243.96,412.22 244.57,410.01 245.18,407.88 245.79,404.97 246.40,402.15 247.00,400.11 247.61,398.60 248.22,397.69 248.83,396.87 249.44,395.22 250.04,394.24 250.65,393.15 251.26,391.37 251.87,391.10 252.48,391.16 253.08,390.98 253.69,391.51 254.30,392.89 254.91,393.75 255.51,394.32 256.12,395.08 256.73,395.96 257.34,396.73 257.95,397.71 258.55,398.62 259.16,399.38 259.77,400.20 260.38,400.82 260.99,401.21 261.59,401.56 262.20,401.95 262.81,402.20 263.42,402.44 264.03,402.51 264.63,402.44 265.24,402.26 265.85,401.86 266.46,401.31 267.07,400.74 267.67,400.16 268.28,399.49 268.89,398.71 269.50,397.84 270.10,397.00 270.71,396.07 271.32,395.04 271.93,393.95 272.54,392.93 273.14,391.79 273.75,390.76 274.36,389.69 274.97,388.65 275.58,387.65 276.18,386.70 276.79,385.69 277.40,384.78 278.01,384.02 278.62,383.21 279.22,382.45 279.83,381.71 280.44,381.13 281.05,380.64 281.66,380.22 282.26,379.72 282.87,379.34 283.48,379.11 284.09,378.94 284.70,378.90 285.30,378.79 285.91,378.91 286.52,378.88 287.13,379.05 287.73,379.27 288.34,379.52 288.95,379.73 289.56,380.03 290.17,380.37 290.77,380.77 291.38,381.20 291.99,381.50 292.60,381.98 293.21,382.35 293.81,382.72 294.42,383.15 295.03,383.43 295.64,383.75 296.25,384.15 296.85,384.42 297.46,384.59 298.07,384.86 298.68,385.09 299.29,385.24 299.89,385.35 300.50,385.45 301.11,385.47 301.72,385.44 302.33,385.48 302.93,385.44 303.54,385.39 304.15,385.34 304.76,385.24 305.36,385.12 305.97,384.99 306.58,384.87 307.19,384.85 307.80,384.67 308.40,384.44 309.01,384.15 309.62,383.88 310.23,383.68 310.84,383.45 311.44,383.13 312.05,382.65 312.66,382.32 313.27,381.86 313.88,381.54 314.48,381.18 315.09,380.73 315.70,380.42 316.31,380.00 316.92,379.41 317.52,378.81 318.13,378.19 318.74,377.75 319.35,377.31 319.96,376.75 320.56,376.23 321.17,375.68 321.78,375.25 322.39,374.84 322.99,374.52 323.60,374.06 324.21,373.66 324.82,373.33 325.43,373.02 326.03,372.73 326.64,372.50 327.25,372.38 327.86,372.16 328.47,372.05 329.07,371.94 329.68,371.88 330.29,371.86 330.90,371.79 331.51,371.72 332.11,371.71 332.72,371.77 333.33,371.75 333.94,371.90 334.55,371.81 335.15,371.97 335.76,372.19 336.37,372.32 336.98,372.39 337.58,372.64 338.19,372.79 338.80,372.96 339.41,373.32 340.02,373.57 340.62,373.75 341.23,373.85 341.84,374.15 342.45,374.37 343.06,374.58 343.66,374.72 344.27,374.97 344.88,375.58 345.49,375.84 346.10,375.85 346.70,376.07 347.31,376.32 347.92,376.37 348.53,376.61 349.14,376.87 349.74,377.04 350.35,377.15 350.96,377.16 351.57,377.22 352.18,377.21 352.78,377.24 353.39,377.19 354.00,377.02 354.61,376.79 355.21,376.50 355.82,376.33 356.43,376.15 357.04,375.76 357.65,375.22 358.25,375.21 358.86,375.09 359.47,374.96 360.08,374.69 360.69,374.37 361.29,373.98 361.90,374.09 362.51,374.13 363.12,373.94 363.73,373.63 364.33,373.38 364.94,373.28 365.55,373.01 366.16,373.07 366.77,372.97 367.37,372.98 367.98,373.02 368.59,373.09 369.20,373.06 369.81,373.02 370.41,373.16 371.02,372.87 371.63,372.69 372.24,372.44 372.84,372.07 373.45,371.65 374.06,371.32 374.67,370.95 375.28,370.46 375.88,370.17 376.49,369.87 377.10,369.51 377.71,369.20 378.32,368.89 378.92,368.78 379.53,368.69 380.14,368.60 380.75,368.54 381.36,368.30 381.96,368.31 382.57,368.20 383.18,368.40 383.79,368.39 384.40,368.42 385.00,368.55 385.61,368.56 386.22,368.61 386.83,368.70 387.44,368.69 388.04,368.79 388.65,368.73 389.26,368.56 389.87,368.51 390.47,368.62 391.08,368.60 391.69,368.63 392.30,368.78 392.91,369.01 393.51,369.07 394.12,369.32 394.73,369.42 395.34,369.41 395.95,369.46 396.55,369.63 397.16,369.71 397.77,369.74 398.38,369.93 398.99,370.07 399.59,370.49 400.20,370.73 400.81,370.68 401.42,370.95 402.03,371.19 402.63,371.37 403.24,371.51 403.85,371.63 404.46,371.77 405.06,371.85 405.67,371.96 406.28,372.17 406.89,372.33 407.50,372.54 408.10,372.54 408.71,372.60 409.32,372.59 409.93,372.65 410.54,373.02 411.14,373.12 411.75,373.11 412.36,373.16 412.97,373.16 413.58,373.14 414.18,373.25 414.79,373.27 415.40,373.06 416.01,373.04 416.62,372.99 417.22,372.92 417.83,372.76 418.44,372.72 419.05,372.75 419.66,372.52 420.26,372.36 420.87,372.16 421.48,372.00 422.09,371.84 422.69,371.60 423.30,371.39 423.91,371.20 424.52,371.03 425.13,370.83 425.73,370.61 426.34,370.39 426.95,370.11 427.56,369.85 428.17,369.50 428.77,369.27 429.38,369.03 429.99,368.75 430.60,368.57 431.21,368.32 431.81,368.03 432.42,367.90 433.03,367.66 433.64,367.40 434.25,367.26 434.85,367.07 435.46,366.84 436.07,366.71 436.68,366.52 437.29,366.36 437.89,366.23 438.50,366.03 439.11,365.90 439.72,365.81 440.32,365.66 440.93,365.58 441.54,365.48 442.15,365.44 442.76,365.33 443.36,365.32 443.97,365.32 444.58,365.33 445.19,365.31 445.80,365.29 446.40,365.30 447.01,365.25 447.62,365.22 448.23,365.22 448.84,365.41 449.44,365.47 450.05,365.55 450.66,365.60 451.27,365.68 451.88,365.80 452.48,365.96 453.09,366.08 453.70,366.25 454.31,366.35 454.91,366.45 455.52,366.69 456.13,366.80 456.74,366.97 457.35,367.12 457.95,367.31 458.56,367.50 459.17,367.63 459.78,367.83 460.39,368.01 460.99,368.13 461.60,368.28 462.21,368.55 462.82,368.63 463.43,368.88 464.03,369.00 464.64,369.08 465.25,369.33 465.86,369.40 466.47,369.60 467.07,369.65 467.68,369.82 468.29,369.92 468.90,370.00 469.50,370.05 470.11,370.20 470.72,370.27 471.33,370.28 471.94,370.37 472.54,370.39 473.15,370.39 473.76,370.45 474.37,370.41 474.98,370.35 475.58,370.36 476.19,370.24 476.80,370.32 477.41,370.17 478.02,370.12 478.62,369.94 479.23,369.94 479.84,369.78 480.45,369.76 481.06,369.64 481.66,369.47 482.27,369.30 482.88,369.13 483.49,369.03 484.10,368.84 484.70,368.75 485.31,368.58 485.92,368.35 486.53,368.21 487.13,368.03 487.74,367.82 488.35,367.63 488.96,367.50 489.57,367.30 490.17,367.09 490.78,366.93 491.39,366.71 492.00,366.46 492.61,366.23 493.21,366.12 493.82,365.89 494.43,365.67 495.04,365.46 495.65,365.30 496.25,365.19 496.86,365.05 497.47,364.92 498.08,364.71 498.69,364.65 499.29,364.56 499.90,364.48 500.51,364.35 501.12,364.26 501.73,364.22 502.33,364.10 502.94,364.03 503.55,363.89 504.16,363.90 504.76,363.88 505.37,363.94 505.98,363.88 506.59,363.88 507.20,363.84 507.80,363.88 508.41,363.92 509.02,363.98 509.63,364.09 510.24,363.99 510.84,364.00 511.45,364.18 512.06,364.21 512.67,364.41 513.28,364.52 513.88,364.50 514.49,364.58 515.10,364.68 515.71,364.79 516.32,364.86 516.92,364.99 517.53,365.09 518.14,365.28 518.75,365.42 519.36,365.57 519.96,365.71 520.57,365.86 521.18,365.97 521.79,366.08 522.39,366.26 523.00,366.47 523.61,366.64 524.22,366.78 524.83,366.92 525.43,367.06 526.04,367.23 526.65,367.33 527.26,367.38 527.87,367.50 528.47,367.65 529.08,367.75 529.69,367.91 530.30,368.01 530.91,368.11 531.51,368.11 532.12,368.28 532.73,368.26 533.34,368.37 533.95,368.40 534.55,368.48 535.16,368.50 535.77,368.57 536.38,368.60 536.98,368.51 537.59,368.47 538.20,368.48 538.81,368.41 539.42,368.39 540.02,368.36 540.63,368.33 541.24,368.26 541.85,368.20 542.46,368.14 543.06,368.01 543.67,368.04 544.28,367.93 544.89,367.80 545.50,367.76 546.10,367.62 546.71,367.49 547.32,367.49 547.93,367.36 548.54,367.15 549.14,367.12 549.75,366.88 550.36,366.81 550.97,366.68 551.58,366.57 552.18,366.37 552.79,366.25 553.40,366.10 554.01,366.03 554.61,365.94 555.22,365.96 555.83,366.00 556.44,365.93 557.05,365.87 557.65,365.69 558.26,365.75 558.87,365.78 559.48,365.74 560.09,365.57 560.69,365.28 561.30,365.05 561.91,365.05 562.52,364.95 563.13,364.98 563.73,365.13 564.34,365.17 564.95,365.08 565.56,365.15 566.17,365.21 566.77,364.83 567.38,364.66 567.99,364.76 568.60,364.81 569.21,364.73 569.81,364.72 570.42,364.76 571.03,364.79 571.64,364.71 572.24,364.79 572.85,364.67 573.46,364.37 574.07,364.56 574.68,364.79 575.28,364.71 575.89,364.53 576.50,364.45 577.11,364.45 577.72,364.44 578.32,364.26 578.93,364.12 579.54,364.02 580.15,364.03 580.76,364.19 581.36,364.21 581.97,364.30 582.58,364.39 583.19,364.55 583.80,364.58 584.40,364.71 585.01,364.85 585.62,364.97 586.23,365.17 586.84,365.24 587.44,365.39 588.05,365.51 588.66,365.57 589.27,365.76 589.87,365.85 590.48,365.95 591.09,366.03 591.70,366.13 592.31,366.28 592.91,366.33 593.52,366.45 594.13,366.53 594.74,366.56 595.35,366.61 595.95,366.67 596.56,366.75 597.17,366.74 597.78,366.80 598.39,366.82 598.99,366.85 599.60,366.87 600.21,366.99 600.82,366.89 601.43,366.89 602.03,366.93 602.64,366.98 603.25,366.83 603.86,366.88 604.46,366.84 605.07,366.80 605.68,366.74 606.29,366.65 606.90,366.66 607.50,366.63 608.11,366.56 608.72,366.52 609.33,366.43 609.94,366.31 610.54,366.12 611.15,366.07 611.76,365.94 612.37,365.95 612.98,365.78 613.58,365.69 614.19,365.59 614.80,365.46 615.41,365.29 616.02,365.25 616.62,365.13 617.23,364.97 617.84,364.88 618.45,364.71 619.06,364.55 619.66,364.43 620.27,364.21 620.88,364.21 621.49,364.06 622.09,363.96 622.70,363.87 623.31,363.73 623.92,363.65 624.53,363.61 625.13,363.46 625.74,363.40 626.35,363.22 626.96,363.16 627.57,363.02 628.17,363.02 628.78,362.91 629.39,362.87 630.00,362.87 630.61,362.78 631.21,362.79 631.82,362.68 632.43,362.64 633.04,362.69 633.65,362.62 634.25,362.62 634.86,362.59 635.47,362.52 636.08,362.57 636.69,362.60 637.29,362.49 637.90,362.57 638.51,362.66 639.12,362.64 639.72,362.72 640.33,362.72 640.94,362.76 641.55,362.84 642.16,362.82 642.76,362.96 643.37,363.02 643.98,363.04 644.59,363.13 645.20,363.30 645.80,363.30 646.41,363.45 647.02,363.47 647.63,363.57 648.24,363.69 648.84,363.73 649.45,363.83 650.06,363.94 650.67,364.03 651.28,364.10 651.88,364.21 652.49,364.30 653.10,364.44 653.71,364.58 654.32,364.69 654.92,364.72 655.53,364.81 656.14,364.94 656.75,365.02 657.35,365.11 657.96,365.17 658.57,365.18 659.18,365.26 659.79,365.32 660.39,365.44 661.00,365.48 661.61,365.40 662.22,365.45 662.83,365.48 663.43,365.61 664.04,365.59 664.65,365.60 665.26,365.57 665.87,365.61 666.47,365.62 667.08,365.64 667.69,365.58 668.30,365.59 668.91,365.65 669.51,365.63 670.12,365.57 670.73,365.53 671.34,365.43 671.94,365.34 672.55,365.28 673.16,365.23 673.77,365.25 674.38,365.16 674.98,365.12 675.59,365.12 676.20,364.99 676.81,364.90 677.42,364.87 678.02,364.73 678.63,364.68 679.24,364.63 679.85,364.51 680.46,364.43 681.06,364.35 681.67,364.31 682.28,364.19 682.89,364.10 683.50,364.03 684.10,363.86 684.71,363.82 685.32,363.74 685.93,363.52 686.54,363.49 687.14,363.34 687.75,363.23 688.36,363.30 688.97,363.19 689.57,363.09 690.18,362.95 690.79,362.90 691.40,362.85 692.01,362.71 692.61,362.71 693.22,362.66 693.83,362.63 694.44,362.53 695.05,362.48 695.65,362.51 696.26,362.51 696.87,362.38 697.48,362.40 698.09,362.38 698.69,362.37 699.30,362.38 699.91,362.40 700.52,362.40 701.13,362.33 701.73,362.31 702.34,362.40 702.95,362.41 703.56,362.38 704.17,362.38 704.77,362.40 705.38,362.54 705.99,362.57 706.60,362.67 707.20,362.63 707.81,362.64 708.42,362.82 709.03,362.81 709.64,362.74 710.24,362.86 710.85,362.90 711.46,363.01 712.07,363.00 712.68,363.18 713.28,363.20 713.89,363.23 714.50,363.30 715.11,363.45 715.72,363.52 716.32,363.54 716.93,363.62 717.54,363.72 718.15,363.78 718.76,363.89 719.36,363.94 719.97,363.97 720.58,364.01 721.19,364.10 721.79,364.20 722.40,364.20 723.01,364.31 723.62,364.37 724.23,364.42 724.83,364.49 725.44,364.45 726.05,364.55 726.66,364.56 727.27,364.53 727.87,364.59 728.48,364.71 729.09,364.70 729.70,364.68 730.31,364.63 730.91,364.61 731.52,364.63 732.13,364.60 732.74,364.60 733.35,364.61 733.95,364.65 734.56,364.55 735.17,364.63 735.78,364.56 736.39,364.45 736.99,364.51 737.60,364.43 738.21,364.33 738.82,364.25 739.42,364.20 740.03,364.18 740.64,364.17 741.25,364.09 741.86,363.95 742.46,363.97 743.07,363.89 743.68,363.88 744.29,363.74 744.90,363.71 745.50,363.63 746.11,363.61 746.72,363.59 747.33,363.44 747.94,363.37 748.54,363.30 749.15,363.20 749.76,363.10 750.37,363.08 750.98,362.94 751.58,362.84 752.19,362.73 752.80,362.72 753.41,362.81 754.01,362.69 754.62,362.51 755.23,362.49 755.84,362.46 756.45,362.43 757.05,362.40 757.66,362.24 758.27,362.20 758.88,362.09 759.49,362.06 760.09,362.12 760.70,362.16 761.31,362.13 761.92,362.14 762.53,362.04 763.13,362.06 763.74,361.97 764.35,361.94 764.96,361.98 765.57,361.99 766.17,361.95 766.78,361.98 767.39,362.03 768.00,361.95 768.61,361.97 769.21,362.00 769.82,362.05 770.43,362.11 771.04,362.14 771.64,362.10 772.25,362.18 772.86,362.07 773.47,362.23 774.08,362.27 774.68,362.25 775.29,362.30 775.90,362.36 776.51,362.49 777.12,362.55 777.72,362.53 778.33,362.56 778.94,362.64 779.55,362.74 780.16,362.74 780.76,362.85 781.37,362.86 781.98,362.92 782.59,363.01 783.20,363.04 783.80,363.19 784.41,363.17 785.02,363.17 785.63,363.31 786.24,363.32 786.84,363.36 787.45,363.34 788.06,363.43 788.67,363.51 789.27,363.51 789.88,363.56 790.49,363.61 791.10,363.56 791.71,363.60 792.31,363.67 792.92,363.68 793.53,363.70 794.14,363.74 794.75,363.63 795.35,363.61 795.96,363.59 796.57,363.71 797.18,363.70 797.79,363.66 798.39,363.71 799.00,363.76 799.61,363.68 800.22,363.68 800.83,363.60 801.43,363.48 802.04,363.56 802.65,363.48 803.26,363.47 803.86,363.50 804.47,363.41 805.08,363.33 805.69,363.37 806.30,363.30 806.90,363.24 807.51,363.13 808.12,363.18 808.73,363.07 809.34,363.04 809.94,362.91 810.55,362.81 811.16,362.78 811.77,362.81 812.38,362.74 812.98,362.64 813.59,362.59 814.20,362.54 814.81,362.45 815.42,362.33 816.02,362.29 816.63,362.29 817.24,362.24 817.85,362.21 818.46,362.14 819.06,362.07 819.67,362.05 820.28,361.91 820.89,361.84 821.49,361.82 822.10,361.90 822.71,361.76 823.32,361.78 823.93,361.74 824.53,361.77 825.14,361.69 825.75,361.67 826.36,361.70 826.97,361.56 827.57,361.46 828.18,361.58 828.79,361.58 829.40,361.56 830.01,361.54 830.61,361.58 831.22,361.63 831.83,361.66 832.44,361.66 833.05,361.63 833.65,361.64 834.26,361.68 834.87,361.67 835.48,361.73 836.09,361.84 836.69,361.83 837.30,361.88 837.91,361.82 838.52,361.85 839.12,361.80 839.73,361.93 840.34,361.92 840.95,361.95 841.56,362.04 842.16,362.09 842.77,362.18 843.38,362.22 843.99,362.24 844.60,362.22 845.20,362.22 845.81,362.23 846.42,362.33 847.03,362.50 847.64,362.53 848.24,362.55 848.85,362.66 849.46,362.71 850.07,362.72 850.68,362.64 851.28,362.64 851.89,362.77 852.50,362.82 853.11,362.84 853.72,362.80 854.32,362.88 854.93,362.88 855.54,362.93 856.15,362.95 856.75,362.99 857.36,363.02 857.97,363.02 858.58,363.02 859.19,363.02 859.79,362.95 860.40,362.86 861.01,362.95 861.62,362.99 862.23,362.97 862.83,363.01 863.44,363.05 864.05,362.96 864.66,362.86 865.27,362.77 865.87,362.86 866.48,362.76 867.09,362.84 867.70,362.82 868.31,362.80 868.91,362.76 869.52,362.66 870.13,362.65 870.74,362.61 871.34,362.55 871.95,362.45 872.56,362.40 873.17,362.42 873.78,362.36 874.38,362.26 874.99,362.27 875.60,362.20 876.21,361.96 876.82,361.96 877.42,361.95 878.03,362.02 878.64,361.89 879.25,361.89 879.86,361.97 880.46,361.91 881.07,361.75 881.68,361.74 882.29,361.72 882.90,361.50 883.50,361.41 884.11,361.48 884.72,361.48 885.33,361.38 885.94,361.38 886.54,361.32 887.15,361.32 887.76,361.05 888.37,360.91 888.97,361.00 889.58,361.18 890.19,361.26 890.80,361.32 891.41,361.26 892.01,361.35 892.62,361.42 893.23,361.28 893.84,361.26 894.45,361.11 895.05,361.04 895.66,360.93 896.27,360.73 896.88,360.49 897.49,360.75 898.09,361.14 898.70,361.02 899.31,361.11 899.92,361.14 900.53,361.20 901.13,361.20 901.74,361.30 902.35,361.22 902.96,361.16 903.57,360.98 904.17,361.12 904.78,361.32 905.39,361.43 906.00,361.58 906.60,361.58 907.21,361.49 907.82,361.57 908.43,361.69 909.04,361.75 909.64,361.84 910.25,361.83 910.86,362.00 911.47,361.98 912.08,361.90 912.68,361.82 913.29,362.00 913.90,362.05 914.51,362.09 915.12,362.13 915.72,362.22 916.33,362.15 916.94,362.37 917.55,362.31 918.16,362.13 918.76,361.76 919.37,361.77 919.98,361.89 920.59,362.02 921.20,362.37 921.80,362.15 922.41,362.03 923.02,362.30 923.63,362.20 924.23,361.95 924.84,362.01 925.45,362.18 926.06,362.17 926.67,362.07 927.27,362.08 927.88,362.24 928.49,362.50 929.10,362.37 929.71,362.26 930.31,362.16 930.92,362.05 931.53,362.19 932.14,362.10 932.75,362.13 933.35,362.18 933.96,361.99 934.57,361.87 935.18,361.90 935.79,361.92 936.39,361.85 937.00,361.85 937.61,361.83 938.22,361.80 938.82,361.75 939.43,361.52 940.04,361.39 940.65,361.50 941.26,361.51 941.86,361.33 942.47,361.32 943.08,361.13 943.69,361.04 944.30,360.97 944.90,360.86 945.51,360.95 946.12,361.03 946.73,360.99 947.34,361.01 947.94,361.02 948.55,361.32 949.16,361.39 949.77,360.89 950.38,360.71 950.98,360.63 951.59,360.63 952.20,360.59 952.81,360.58 953.42,360.48 954.02,360.51 954.63,360.57 955.24,360.60 955.85,360.66 956.45,360.69 957.06,360.85 957.67,360.69 958.28,360.66 958.89,360.61 959.49,360.71 960.10,360.65 960.71,360.51 961.32,360.51 961.93,360.68 962.53,360.66 963.14,360.74 963.75,360.71 964.36,360.65 964.97,360.73 965.57,360.81 966.18,360.84 966.79,360.78 967.40,360.75 968.01,360.81 968.61,361.00 969.22,361.03 969.83,361.12 970.44,361.13 971.05,361.03 971.65,361.08 972.26,361.14 972.87,361.19 973.48,361.23 974.08,361.24 974.69,361.29 975.30,361.29 975.91,361.33 976.52,361.45 977.12,361.51 977.73,361.63 978.34,361.72 978.95,361.74 979.56,361.64 980.16,361.65 980.77,361.76 981.38,361.80 981.99,361.88 982.60,361.82 983.20,361.81 983.81,361.92 984.42,361.81 985.03,361.90 985.64,362.06"><title>SiC 15度</title></polyline>
<text x="78.0" y="466" text-anchor="middle" font-family="Arial" font-size="11">400</text>
<text x="259.6" y="466" text-anchor="middle" font-family="Arial" font-size="11">1120</text>
<text x="441.2" y="466" text-anchor="middle" font-family="Arial" font-size="11">1840</text>
<text x="622.8" y="466" text-anchor="middle" font-family="Arial" font-size="11">2560</text>
<text x="804.4" y="466" text-anchor="middle" font-family="Arial" font-size="11">3280</text>
<text x="986.0" y="466" text-anchor="middle" font-family="Arial" font-size="11">4000</text>
<text x="70" y="452.0" text-anchor="end" font-family="Arial" font-size="11">-6.2</text>
<text x="70" y="374.0" text-anchor="end" font-family="Arial" font-size="11">16.9</text>
<text x="70" y="296.0" text-anchor="end" font-family="Arial" font-size="11">40.0</text>
<text x="70" y="218.0" text-anchor="end" font-family="Arial" font-size="11">63.1</text>
<text x="70" y="140.0" text-anchor="end" font-family="Arial" font-size="11">86.2</text>
<text x="70" y="62.0" text-anchor="end" font-family="Arial" font-size="11">109.3</text>
<line x1="800" y1="48" x2="826" y2="48" stroke="#4c78a8" stroke-width="3"/>
<text x="834" y="52" font-family="Arial, Microsoft YaHei" font-size="12">SiC 10度</text>
<line x1="800" y1="68" x2="826" y2="68" stroke="#f58518" stroke-width="3"/>
<text x="834" y="72" font-family="Arial, Microsoft YaHei" font-size="12">SiC 15度</text>
</svg>
