<svg xmlns="http://www.w3.org/2000/svg" width="760" height="600" viewBox="0 0 760 600">
<rect width="100%" height="100%" fill="white"/>
<text x="380.0" y="32" text-anchor="middle" font-family="Arial, Microsoft YaHei" font-size="20">nu_p 敏感性：联合最佳厚度</text>
<text x="392.0" y="572" text-anchor="middle" font-family="Arial, Microsoft YaHei" font-size="13">衬底 nu_p 缩放</text>
<text x="26" y="289.0" transform="rotate(-90 26,289.0)" text-anchor="middle" font-family="Arial, Microsoft YaHei" font-size="13">外延层 nu_p 缩放</text>
<text x="180.8" y="528" text-anchor="middle" font-family="Arial" font-size="12">0</text>
<text x="286.4" y="528" text-anchor="middle" font-family="Arial" font-size="12">0.5</text>
<text x="392.0" y="528" text-anchor="middle" font-family="Arial" font-size="12">1</text>
<text x="497.6" y="528" text-anchor="middle" font-family="Arial" font-size="12">1.5</text>
<text x="603.2" y="528" text-anchor="middle" font-family="Arial" font-size="12">2</text>
<text x="116" y="117.8" text-anchor="end" font-family="Arial" font-size="12">2</text>
<text x="116" y="205.4" text-anchor="end" font-family="Arial" font-size="12">1.5</text>
<text x="116" y="293.0" text-anchor="end" font-family="Arial" font-size="12">1</text>
<text x="116" y="380.6" text-anchor="end" font-family="Arial" font-size="12">0.5</text>
<text x="116" y="468.2" text-anchor="end" font-family="Arial" font-size="12">0</text>
<rect x="128.0" y="70.0" width="105.6" height="87.6" fill="#c63720" stroke="white"/>
<text x="180.8" y="117.8" text-anchor="middle" font-family="Arial" font-size="12" fill="white">7.66</text>
<rect x="128.0" y="157.6" width="105.6" height="87.6" fill="#b04136" stroke="white"/>
<text x="180.8" y="205.4" text-anchor="middle" font-family="Arial" font-size="12" fill="white">7.62</text>
<rect x="128.0" y="245.2" width="105.6" height="87.6" fill="#a64741" stroke="white"/>
<text x="180.8" y="293.0" text-anchor="middle" font-family="Arial" font-size="12" fill="white">7.60</text>
<rect x="128.0" y="332.8" width="105.6" height="87.6" fill="#9b4c4c" stroke="white"/>
<text x="180.8" y="380.6" text-anchor="middle" font-family="Arial" font-size="12" fill="white">7.58</text>
<rect x="128.0" y="420.4" width="105.6" height="87.6" fill="#9b4c4c" stroke="white"/>
<text x="180.8" y="468.2" text-anchor="middle" font-family="Arial" font-size="12" fill="white">7.58</text>
<rect x="233.6" y="70.0" width="105.6" height="87.6" fill="#905158" stroke="white"/>
<text x="286.4" y="117.8" text-anchor="middle" font-family="Arial" font-size="12" fill="white">7.56</text>
<rect x="233.6" y="157.6" width="105.6" height="87.6" fill="#865763" stroke="white"/>
<text x="286.4" y="205.4" text-anchor="middle" font-family="Arial" font-size="12" fill="white">7.54</text>
<rect x="233.6" y="245.2" width="105.6" height="87.6" fill="#7b5c6e" stroke="white"/>
<text x="286.4" y="293.0" text-anchor="middle" font-family="Arial" font-size="12" fill="white">7.52</text>
<rect x="233.6" y="332.8" width="105.6" height="87.6" fill="#706179" stroke="white"/>
<text x="286.4" y="380.6" text-anchor="middle" font-family="Arial" font-size="12" fill="white">7.50</text>
<rect x="233.6" y="420.4" width="105.6" height="87.6" fill="#706179" stroke="white"/>
<text x="286.4" y="468.2" text-anchor="middle" font-family="Arial" font-size="12" fill="white">7.50</text>
<rect x="339.2" y="70.0" width="105.6" height="87.6" fill="#5b6c90" stroke="white"/>
<text x="392.0" y="117.8" text-anchor="middle" font-family="Arial" font-size="12" fill="white">7.46</text>
<rect x="339.2" y="157.6" width="105.6" height="87.6" fill="#5b6c90" stroke="white"/>
<text x="392.0" y="205.4" text-anchor="middle" font-family="Arial" font-size="12" fill="white">7.46</text>
<rect x="339.2" y="245.2" width="105.6" height="87.6" fill="#50719b" stroke="white"/>
<text x="392.0" y="293.0" text-anchor="middle" font-family="Arial" font-size="12" fill="white">7.44</text>
<rect x="339.2" y="332.8" width="105.6" height="87.6" fill="#50719b" stroke="white"/>
<text x="392.0" y="380.6" text-anchor="middle" font-family="Arial" font-size="12" fill="white">7.44</text>
<rect x="339.2" y="420.4" width="105.6" height="87.6" fill="#50719b" stroke="white"/>
<text x="392.0" y="468.2" text-anchor="middle" font-family="Arial" font-size="12" fill="white">7.44</text>
<rect x="444.8" y="70.0" width="105.6" height="87.6" fill="#4677a6" stroke="white"/>
<text x="497.6" y="117.8" text-anchor="middle" font-family="Arial" font-size="12" fill="white">7.42</text>
<rect x="444.8" y="157.6" width="105.6" height="87.6" fill="#4677a6" stroke="white"/>
<text x="497.6" y="205.4" text-anchor="middle" font-family="Arial" font-size="12" fill="white">7.42</text>
<rect x="444.8" y="245.2" width="105.6" height="87.6" fill="#3b7cb1" stroke="white"/>
<text x="497.6" y="293.0" text-anchor="middle" font-family="Arial" font-size="12" fill="white">7.40</text>
<rect x="444.8" y="332.8" width="105.6" height="87.6" fill="#3b7cb1" stroke="white"/>
<text x="497.6" y="380.6" text-anchor="middle" font-family="Arial" font-size="12" fill="white">7.40</text>
<rect x="444.8" y="420.4" width="105.6" height="87.6" fill="#3b7cb1" stroke="white"/>
<text x="497.6" y="468.2" text-anchor="middle" font-family="Arial" font-size="12" fill="white">7.40</text>
<rect x="550.4" y="70.0" width="105.6" height="87.6" fill="#3b7cb1" stroke="white"/>
<text x="603.2" y="117.8" text-anchor="middle" font-family="Arial" font-size="12" fill="white">7.40</text>
<rect x="550.4" y="157.6" width="105.6" height="87.6" fill="#3b7cb1" stroke="white"/>
<text x="603.2" y="205.4" text-anchor="middle" font-family="Arial" font-size="12" fill="white">7.40</text>
<rect x="550.4" y="245.2" width="105.6" height="87.6" fill="#3182bd" stroke="white"/>
<text x="603.2" y="293.0" text-anchor="middle" font-family="Arial" font-size="12" fill="white">7.38</text>
<rect x="550.4" y="332.8" width="105.6" height="87.6" fill="#3182bd" stroke="white"/>
<text x="603.2" y="380.6" text-anchor="middle" font-family="Arial" font-size="12" fill="white">7.38</text>
<rect x="550.4" y="420.4" width="105.6" height="87.6" fill="#3182bd" stroke="white"/>
<text x="603.2" y="468.2" text-anchor="middle" font-family="Arial" font-size="12" fill="white">7.38</text>
<rect x="690" y="497.1" width="18" height="11.9" fill="#3182bd"/>
<rect x="690" y="486.1" width="18" height="11.9" fill="#3480b9"/>
<rect x="690" y="475.2" width="18" height="11.9" fill="#387eb5"/>
<rect x="690" y="464.2" width="18" height="11.9" fill="#3c7cb1"/>
<rect x="690" y="453.2" width="18" height="11.9" fill="#3f7aad"/>
<rect x="690" y="442.3" width="18" height="11.9" fill="#4378a9"/>
<rect x="690" y="431.3" width="18" height="11.9" fill="#4776a5"/>
<rect x="690" y="420.4" width="18" height="11.9" fill="#4b74a1"/>
<rect x="690" y="409.4" width="18" height="11.9" fill="#4e739d"/>
<rect x="690" y="398.5" width="18" height="11.9" fill="#527199"/>
<rect x="690" y="387.6" width="18" height="11.9" fill="#566f95"/>
<rect x="690" y="376.6" width="18" height="11.9" fill="#596d91"/>
<rect x="690" y="365.7" width="18" height="11.9" fill="#5d6b8d"/>
<rect x="690" y="354.7" width="18" height="11.9" fill="#616989"/>
<rect x="690" y="343.8" width="18" height="11.9" fill="#656786"/>
<rect x="690" y="332.8" width="18" height="11.9" fill="#686582"/>
<rect x="690" y="321.9" width="18" height="11.9" fill="#6c647e"/>
<rect x="690" y="310.9" width="18" height="11.9" fill="#70627a"/>
<rect x="690" y="300.0" width="18" height="11.9" fill="#746076"/>
<rect x="690" y="289.0" width="18" height="11.9" fill="#775e72"/>
<rect x="690" y="278.0" width="18" height="11.9" fill="#7b5c6e"/>
<rect x="690" y="267.1" width="18" height="11.9" fill="#7f5a6a"/>
<rect x="690" y="256.1" width="18" height="11.9" fill="#825866"/>
<rect x="690" y="245.2" width="18" height="11.9" fill="#865662"/>
<rect x="690" y="234.2" width="18" height="11.9" fill="#8a555e"/>
<rect x="690" y="223.3" width="18" height="11.9" fill="#8e535a"/>
<rect x="690" y="212.3" width="18" height="11.9" fill="#915156"/>
<rect x="690" y="201.4" width="18" height="11.9" fill="#954f53"/>
<rect x="690" y="190.4" width="18" height="11.9" fill="#994d4f"/>
<rect x="690" y="179.5" width="18" height="11.9" fill="#9d4b4b"/>
<rect x="690" y="168.6" width="18" height="11.9" fill="#a04947"/>
<rect x="690" y="157.6" width="18" height="11.9" fill="#a44743"/>
<rect x="690" y="146.7" width="18" height="11.9" fill="#a8463f"/>
<rect x="690" y="135.7" width="18" height="11.9" fill="#ab443b"/>
<rect x="690" y="124.8" width="18" height="11.9" fill="#af4237"/>
<rect x="690" y="113.8" width="18" height="11.9" fill="#b34033"/>
<rect x="690" y="102.8" width="18" height="11.9" fill="#b73e2f"/>
<rect x="690" y="91.9" width="18" height="11.9" fill="#ba3c2b"/>
<rect x="690" y="81.0" width="18" height="11.9" fill="#be3a27"/>
<rect x="690" y="70.0" width="18" height="11.9" fill="#c23823"/>
<text x="716" y="74" font-family="Arial" font-size="11">7.66</text>
<text x="716" y="508.0" font-family="Arial" font-size="11">7.38</text>
<text x="680" y="534.0" font-family="Arial, Microsoft YaHei" font-size="11">最佳 d (μm)</text>
</svg>